<?xml version="1.0" encoding="UTF-8"?>
<svg xmlns="http://www.w3.org/2000/svg" version="1.1" xmlns:xlink="http://www.w3.org/1999/xlink" viewBox="0 0 817.3 193">
  <!-- Generator: Adobe Illustrator 30.5.1, SVG Export Plug-In . SVG Version: 2.1.4 Build 3)  -->
  <defs>
    <style>
      .st0 {
        fill: #8a8576;
        font-family: IBMPlexMono, 'IBM Plex Mono';
        font-size: 33.4px;
      }

      .st1 {
        fill: #fff;
      }

      .st2 {
        display: none;
      }

      .st3 {
        fill: #2c2821;
      }
    </style>
  </defs>
  <g id="Layer_1" class="st2">
    <image width="168" height="193" xlink:href="LogoRedesignTheVikingCompany-Full-1.png"/>
  </g>
  <g id="Layer_2">
    <rect class="st1" x="4.3" y="16.9" width="813" height="160"/>
    <path class="st3" d="M111.9,45.9c-2.3,29-17.2,49.1-49.3,56.8v-9.1c27.2-6.4,39.3-23,39.6-47.6h-15.6c.6,15.1-5.9,26.2-24,30.8v-30.8h-15.7v106.9h15.7v-34.1c44-11.4,64.4-36.3,64.7-72.8h-15.4Z"/>
    <g>
      <path class="st3" d="M174.5,94.8c-.1,0-.2-.1-.2-.4s0-.4.2-.4c1.7,0,3-.1,3.9-.4.9-.2,1.5-.7,1.8-1.5.3-.7.5-1.8.5-3.3v-34.4c0-1.1,0-1.9-.3-2.6-.2-.6-.5-1.1-1-1.3-.5-.3-1.2-.4-2.2-.4-3,0-5.6,1-7.7,3-2.1,2-3.8,4.8-5,8.5,0,.1-.2.2-.4.2-.2,0-.4-.1-.4-.3,0-.7.2-1.7.3-2.9,0-1.3.2-2.6.3-4.1.1-1.5.2-2.9.3-4.3,0-1.4.1-2.5.1-3.4s.1-.4.4-.4.4.1.4.4c0,.5.3.9.8,1.1.5.2,1.1.4,1.8.4.7,0,1.2.1,1.7.1,2.1,0,4.5,0,7,.1,2.5,0,5.2,0,7.9,0h4.7c1.9,0,3.7,0,5.5,0,1.8,0,3.2,0,4.2-.1,3.2-.1,5.9-1,8.1-2.5,2.2-1.5,3.7-3.1,4.7-5,0-.2.4-.3.8-.3.4,0,.6.2.6.4v47.7c0,2,.3,3.3.8,4,.5.7,1.6,1.1,3.1,1.1s.3.1.3.4,0,.4-.3.4c-.9,0-2.1,0-3.3,0-1.3,0-2.7,0-4.1,0s-2.8,0-4.1,0c-1.3,0-2.4,0-3.4,0s-.1-.1-.1-.4,0-.4.1-.4c1.5,0,2.6-.4,3.2-1.1.6-.7.9-2.1.9-4v-37.4c0-.8-.5-1.3-1.6-1.3h-12.3c-1,0-1.7.1-2.3.4-.5.3-.9.7-1,1.4-.2.6-.3,1.5-.3,2.7v34.2c0,1.4.1,2.5.4,3.3.3.7.9,1.2,1.7,1.5.9.2,2.2.4,4,.4s.2.1.2.4,0,.4-.2.4c-1.4,0-2.9,0-4.7,0-1.7,0-3.6,0-5.7,0s-3.8,0-5.6,0c-1.7,0-3.3,0-4.8,0ZM222.4,94.8c0,0-.1-.1-.1-.4s0-.4.1-.4c1.5,0,2.6-.4,3.2-1.1.6-.7.9-2.1.9-4v-10.7c0-5.2-2-7.9-6.1-7.9s-3,.4-4.6,1.2c-1.6.8-2.8,1.8-3.7,3.2v-1.4c1.6-2.4,3.5-4.3,5.7-5.7,2.2-1.4,4.5-2.2,7-2.2s4.9.9,6.4,2.6c1.5,1.7,2.3,4,2.3,6.7v14.3c0,2,.3,3.3.8,4,.5.7,1.6,1.1,3.1,1.1s.3.1.3.4,0,.4-.3.4c-.9,0-2.1,0-3.3,0-1.3,0-2.6,0-4.1,0s-2.8,0-4.1,0c-1.3,0-2.4,0-3.4,0Z"/>
      <path class="st3" d="M256.2,95.7c-3.2,0-6-.7-8.2-2-2.3-1.3-4-3.1-5.1-5.3-1.2-2.2-1.7-4.6-1.7-7.1s.7-5.6,2.2-7.9c1.4-2.4,3.4-4.3,5.9-5.7,2.5-1.4,5.4-2.2,8.7-2.2s5.3.7,7,2c1.8,1.3,2.6,3.5,2.6,6.5s0,1.2-.1,1.6c0,.4-.3.7-.7.7h-7.1c0-2.8-.2-5.1-.8-6.8-.6-1.7-1.9-2.6-3.7-2.6s-3.6,1-4.7,3c-1.2,2-1.7,4.7-1.7,8.1s.4,5.3,1.3,7.4,2.2,3.7,3.9,4.8c1.7,1.1,3.9,1.7,6.4,1.7s2.7-.2,3.8-.6c1-.4,2.1-.9,3.4-1.5,0,0,.2,0,.4.1.2.2.2.4.1.5-1.8,1.8-3.7,3.1-5.6,3.9-1.9.8-4,1.2-6.1,1.2ZM246,76.4v-1.4c0,0,16.2-.3,16.2-.3v1.6h-16.2Z"/>
      <path class="st3" d="M336.5,48.4c.1,0,.2.1.2.4s0,.4-.2.4c-1.8,0-3.6.8-5.2,2.4-1.6,1.6-2.9,3.7-3.9,6.4l-13.7,36.7c0,.2-.3.3-.8.3s-.8,0-.9-.3l-18.9-40.2c-.8-1.7-1.7-3-2.6-3.9-.9-.9-1.9-1.3-3-1.3s-.2-.1-.2-.4,0-.4.2-.4c.6,0,1.1,0,1.4,0,.3,0,.8,0,1.3.1.6,0,1.5,0,2.7,0,2.8,0,5,0,6.8,0,1.7,0,3.1,0,4.2-.1,1.1,0,2,0,2.8,0s.2.1.2.4,0,.4-.2.4c-2.1,0-3.5.6-4.2,1.8s-.6,2.8.4,4.8l13.5,28.8-3.5,6.1,12.5-33c.9-2.4,1-4.5.2-6.1-.8-1.6-2.4-2.5-4.8-2.5s-.2-.1-.2-.4,0-.4.2-.4c1.4,0,2.8,0,4.1.1,1.3,0,3,.1,5.1.1s2.5,0,3.4-.1c.9,0,1.9-.1,3.2-.1Z"/>
      <path class="st3" d="M336.9,94.8c-.1,0-.2-.1-.2-.4s0-.4.2-.4c1.5,0,2.6-.4,3.1-1.1.5-.7.8-2.1.8-4v-13.3c0-1.6-.2-2.8-.5-3.6-.3-.8-.9-1.2-1.7-1.2s-.8,0-1.2.2c-.5.1-1,.3-1.5.6-.2,0-.4,0-.5-.4-.1-.3-.1-.5,0-.5l11.2-5.2c0,0,.2,0,.2,0,.2,0,.5.1.7.4.2.2.4.5.4.7,0,.6,0,1.6,0,3,0,1.4,0,3.4,0,5.9v13.4c0,2,.3,3.3.9,4,.6.7,1.6,1.1,3.2,1.1s.2.1.2.4,0,.4-.2.4c-1,0-2.1,0-3.4,0-1.3,0-2.7,0-4.1,0s-2.7,0-4,0c-1.3,0-2.4,0-3.4,0ZM344,58c-1.4,0-2.5-.4-3.3-1.2-.8-.8-1.2-1.9-1.2-3.3s.4-2.3,1.2-3.1c.8-.8,1.9-1.2,3.3-1.2s2.5.4,3.2,1.2c.7.8,1.1,1.8,1.1,3.1,0,3-1.4,4.5-4.3,4.5Z"/>
      <path class="st3" d="M355.1,94.8c0,0-.1-.1-.1-.4s0-.4.1-.4c1.5,0,2.6-.4,3.2-1.1.6-.7.9-2.1.9-4v-37.7c0-1.7-.1-2.9-.4-3.7-.3-.8-.9-1.2-1.7-1.2s-1.6.3-2.8.8c-.1,0-.3,0-.4-.4-.1-.3-.2-.5,0-.5l10.8-5.1c.1,0,.3,0,.4,0,.2,0,.5.1.8.3.3.2.4.4.4.6v46.9c0,2,.3,3.3.9,4,.6.7,1.6,1.1,3.2,1.1s.3.1.3.4-.1.4-.3.4c-1,0-2.1,0-3.4,0-1.3,0-2.6,0-4,0s-2.8,0-4.1,0c-1.3,0-2.4,0-3.4,0ZM363.3,83.7l-.4-1.2,10-9.7c1.4-1.3,2-2.6,1.9-3.9-.1-1.3-1.1-2-2.8-2s-.1-.1-.1-.4,0-.4.1-.4c1.3,0,2.6,0,3.9,0,1.3,0,3.1,0,5.3,0s3.7,0,4.9,0c1.2,0,2.4,0,3.5,0s.2.1.2.4,0,.4-.2.4c-1.2,0-2.7.2-4.4.6-1.7.4-3.5,1.1-5.2,2-1.8.9-3.5,2.1-5.1,3.6l-11.5,10.5ZM373.8,94.8c-.1,0-.2-.1-.2-.4s0-.4.2-.4c1.3,0,2.2-.3,2.5-.9.3-.6.2-1.3-.4-2.2l-9-11.5,5.1-3.9,10.4,13.3c1.4,1.8,2.8,3.1,4.1,3.9,1.3.8,2.6,1.2,4,1.2s.2.1.2.4,0,.4-.2.4c-1,0-2.1,0-3.4,0-1.3,0-2.6,0-4.1,0s-3.7,0-5.2,0c-1.5,0-2.8,0-4,0Z"/>
      <path class="st3" d="M392.9,94.8c-.1,0-.2-.1-.2-.4s0-.4.2-.4c1.5,0,2.6-.4,3.1-1.1.5-.7.8-2.1.8-4v-13.3c0-1.6-.2-2.8-.5-3.6-.3-.8-.9-1.2-1.7-1.2s-.8,0-1.2.2c-.5.1-1,.3-1.5.6-.2,0-.4,0-.5-.4-.1-.3-.1-.5,0-.5l11.2-5.2c0,0,.2,0,.2,0,.2,0,.5.1.7.4.2.2.4.5.4.7,0,.6,0,1.6,0,3,0,1.4,0,3.4,0,5.9v13.4c0,2,.3,3.3.9,4,.6.7,1.6,1.1,3.2,1.1s.2.1.2.4,0,.4-.2.4c-1,0-2.1,0-3.4,0-1.3,0-2.7,0-4.1,0s-2.7,0-4,0c-1.3,0-2.4,0-3.4,0ZM400,58c-1.4,0-2.5-.4-3.3-1.2-.8-.8-1.2-1.9-1.2-3.3s.4-2.3,1.2-3.1c.8-.8,1.9-1.2,3.3-1.2s2.5.4,3.2,1.2c.7.8,1.1,1.8,1.1,3.1,0,3-1.4,4.5-4.3,4.5Z"/>
      <path class="st3" d="M412.4,94.8c-.1,0-.2-.1-.2-.4s0-.4.2-.4c1.5,0,2.6-.4,3.1-1.1.5-.7.8-2.1.8-4v-14c0-1.5-.2-2.7-.5-3.4-.3-.7-.9-1.1-1.8-1.1s-1,0-1.6.3c-.6.2-1.3.4-2,.8-.2,0-.3,0-.4-.3,0-.3,0-.5,0-.5l10.3-5.1c.3,0,.5-.1.5-.1.5,0,1.1.6,1.6,1.8.5,1.2.8,2.9.8,5.1v16.5c0,2,.3,3.3.9,4,.6.7,1.6,1.1,3.2,1.1s.2.1.2.4,0,.4-.2.4c-1,0-2.1,0-3.4,0-1.3,0-2.7,0-4.1,0s-2.7,0-4,0c-1.3,0-2.4,0-3.4,0ZM432.4,94.8c-.1,0-.2-.1-.2-.4s0-.4.2-.4c1.5,0,2.6-.4,3.1-1.1.5-.7.8-2.1.8-4v-10.7c0-2.7-.5-4.7-1.4-5.9-1-1.3-2.5-1.9-4.6-1.9s-3,.4-4.6,1.1c-1.6.7-2.8,1.8-3.8,3l-.4-.9c1.7-2.5,3.7-4.5,5.9-6,2.2-1.5,4.6-2.3,7.1-2.3s4.9.9,6.4,2.6c1.5,1.7,2.3,4,2.3,6.7v14.3c0,2,.3,3.3.9,4,.6.7,1.6,1.1,3.2,1.1s.2.1.2.4,0,.4-.2.4c-1,0-2.1,0-3.4,0-1.3,0-2.6,0-4.1,0s-2.7,0-4,0c-1.3,0-2.4,0-3.4,0Z"/>
      <path class="st3" d="M462.1,115.7c-3.4,0-6.2-.8-8.4-2.3-2.2-1.6-3.3-3.6-3.3-6.1s.6-3.3,1.8-5.1c1.2-1.8,3.6-3.7,7-5.9l.7.8c-.6.4-1.1.9-1.6,1.4-.4.6-.8,1.2-1,2-.2.8-.3,1.7-.3,2.7,0,2.2.5,4.1,1.4,5.5.9,1.5,2.1,2.6,3.5,3.3,1.4.7,2.9,1.1,4.5,1.1,2.5,0,4.5-.8,6-2.4,1.5-1.6,2.3-3.7,2.3-6.5s-.5-3.8-1.4-4.8c-1-.9-2.3-1.5-4-1.7s-3.6-.3-5.9-.3c-1.7,0-3.4-.2-5.1-.4-1.7-.2-3.1-.8-4.2-1.6-1.1-.8-1.7-2.1-1.7-3.8s.6-3.4,1.8-5.1c1.2-1.6,3.2-3.1,5.8-4.4l.7.4c-1,.6-1.7,1.3-2.2,2-.5.7-.7,1.6-.7,2.6s.4,2.4,1.2,3c.8.6,1.8,1,3.2,1.1,1.4.1,3,.2,4.8.3,1.7,0,3.3,0,4.9.2,1.6.1,3.1.4,4.4.9,1.3.5,2.4,1.3,3.2,2.4.8,1.1,1.2,2.6,1.2,4.5s-.5,4.1-1.5,6.1c-1,1.9-2.4,3.6-4.1,5.1s-3.7,2.7-6,3.5c-2.3.9-4.7,1.3-7.2,1.3ZM463.4,84.9c-2.4,0-4.4-.5-6.2-1.5-1.7-1-3.1-2.3-4-3.8-.9-1.5-1.4-3.1-1.4-4.8s.7-3.8,2-5.2c1.3-1.4,3-2.4,5-3.1,2-.7,4-1,6-1s4.3.4,6,1.2,3.1,1.9,4.1,3.3c1,1.4,1.5,3,1.5,4.8s-.7,3.9-2,5.3c-1.3,1.5-3,2.6-5,3.5-2,.8-4,1.2-6.1,1.2ZM465.3,83.6c1,0,1.9-.5,2.7-1.5.8-1,1.2-2.7,1.2-5.1s-.4-4.1-1.1-5.6c-.7-1.5-1.6-2.5-2.7-3.3-1.1-.7-2.1-1.1-3.1-1.1s-2,.5-2.6,1.5c-.5,1-.8,2.4-.8,4.2s.3,4,.9,5.6c.6,1.6,1.4,2.9,2.4,3.9,1,.9,2,1.4,3,1.4ZM471,71.5v-2.4c1.7-1.2,3.3-2.2,4.8-2.8,1.5-.6,3.2-1,5-1s.4.2.5.6c0,.4.1.9.1,1.5s0,1.5-.3,2.3c-.2.8-.4,1.2-.6,1-.9-.4-1.8-.7-2.7-.9-.9-.2-1.9-.3-2.7-.3s-1.2,0-1.7.1c-.6,0-1.2.2-1.8.5l-.4,1.4Z"/>
      <path class="st3" d="M531.2,47.5c1.5,0,3,0,4.6.2,1.6.1,3.1.4,4.6.7,1.4.3,2.6.7,3.6,1.1.4.1.7.3.9.6.1.2.2.6.3,1.2l1,10.3c0,.1-.1.2-.4.3-.2,0-.4,0-.5-.2-1.4-4-3.4-7.1-5.9-9.3-2.6-2.2-5.7-3.3-9.3-3.3s-6.4.9-9,2.7c-2.7,1.8-4.7,4.4-6.2,7.7-1.5,3.3-2.3,7.3-2.3,11.9s.4,6.6,1.3,9.4c.9,2.8,2.2,5.2,3.8,7.2,1.6,2,3.6,3.5,5.8,4.6,2.2,1.1,4.7,1.6,7.4,1.6s6.4-1,8.7-2.9c2.3-1.9,4.5-4.9,6.5-9.1,0-.1.3-.2.5-.1.2,0,.3.1.3.3l-1.1,9.2c0,.6-.1,1-.3,1.2-.1.2-.4.4-.9.6-2.4.8-4.7,1.5-7.1,1.9-2.4.4-4.6.6-6.7.6-5.3,0-10.1-1-14.3-3s-7.4-4.8-9.8-8.4c-2.4-3.6-3.6-7.7-3.6-12.4s.7-6.8,2.1-9.8c1.4-3,3.4-5.6,5.9-7.7,2.5-2.2,5.5-3.8,9-5s7.1-1.8,11.1-1.8Z"/>
      <path class="st3" d="M567.7,95.8c-3.1,0-5.8-.7-8.1-2.2-2.3-1.4-4-3.4-5.3-5.8-1.2-2.4-1.9-5-1.9-7.8s.5-4.8,1.5-6.7c1-1.9,2.3-3.4,3.9-4.6,1.6-1.2,3.4-2.1,5.3-2.7,1.9-.6,3.8-.9,5.7-.9,3.2,0,5.9.7,8.1,2.2,2.3,1.5,4,3.4,5.2,5.7,1.2,2.3,1.8,4.8,1.8,7.4s-.8,5.7-2.3,8c-1.5,2.3-3.5,4.1-6,5.3-2.5,1.3-5.2,1.9-8.1,1.9ZM569.9,94.2c2,0,3.5-1,4.5-2.9,1-1.9,1.5-4.7,1.5-8.2s-.5-6.6-1.4-9.1c-.9-2.4-2.1-4.3-3.5-5.5-1.4-1.2-2.9-1.9-4.5-1.9s-3.4.9-4.4,2.6c-1,1.7-1.5,4.4-1.5,8s.4,6.3,1.3,8.9c.8,2.6,2,4.5,3.4,5.9,1.4,1.4,3,2.1,4.8,2.1Z"/>
      <path class="st3" d="M589.3,94.8c-.1,0-.2-.1-.2-.4s0-.4.2-.4c1.5,0,2.6-.4,3.1-1.1.5-.7.8-2.1.8-4v-14c0-1.5-.2-2.7-.5-3.4-.3-.7-.9-1.1-1.8-1.1s-1,0-1.6.3c-.6.2-1.3.4-2,.8-.2,0-.3,0-.4-.3,0-.3,0-.5,0-.5l10.3-5.1c.3,0,.5-.1.5-.1.5,0,1.1.6,1.6,1.8.5,1.2.8,2.9.8,5.1v16.5c0,2,.3,3.3.9,4,.6.7,1.6,1.1,3.2,1.1s.2.1.2.4,0,.4-.2.4c-1,0-2.1,0-3.4,0-1.3,0-2.7,0-4.1,0s-2.7,0-4,0c-1.3,0-2.4,0-3.4,0ZM608.4,94.8c-.1,0-.2-.1-.2-.4s0-.4.2-.4c1.5,0,2.6-.4,3.2-1.1.6-.7.9-2.1.9-4v-10.7c0-5.2-1.9-7.9-5.6-7.9s-3,.4-4.5,1.1c-1.4.7-2.6,1.8-3.5,3l-.4-.9c1.7-2.5,3.6-4.5,5.7-6,2.1-1.5,4.4-2.3,6.9-2.3s4.7.7,6.1,2.2c1.4,1.4,2.2,3.5,2.2,6.3v15.1c0,2,.3,3.3.9,4,.6.7,1.6,1.1,3.2,1.1s.3.1.3.4-.1.4-.3.4c-1,0-2.1,0-3.4,0-1.3,0-2.6,0-4.1,0s-2.7,0-4,0c-1.3,0-2.4,0-3.4,0ZM627.9,94.8c-.1,0-.2-.1-.2-.4s0-.4.2-.4c1.5,0,2.6-.4,3.2-1.1.6-.7.9-2.1.9-4v-10.7c0-5.2-1.9-7.9-5.6-7.9s-3,.4-4.5,1.1c-1.4.7-2.6,1.8-3.5,3l-.4-.9c1.7-2.5,3.6-4.5,5.7-6,2.1-1.5,4.4-2.3,6.9-2.3s4.7.8,6.1,2.3c1.4,1.5,2.2,3.9,2.2,7v14.3c0,2,.3,3.3.9,4,.6.7,1.6,1.1,3.2,1.1s.3.1.3.4-.1.4-.3.4c-1,0-2.1,0-3.4,0-1.3,0-2.6,0-4.1,0s-2.7,0-4,0c-1.3,0-2.4,0-3.4,0Z"/>
      <path class="st3" d="M646.1,115.2c-.1,0-.2-.1-.2-.4s0-.4.2-.4c1.7,0,2.9-.3,3.4-1,.5-.6.8-2,.8-4.2v-34.4c0-1.5-.2-2.7-.5-3.4-.3-.7-1-1.1-1.9-1.1s-.9,0-1.5.3c-.6.2-1.2.4-1.9.8-.2,0-.4,0-.5-.3-.1-.3-.2-.5,0-.5l10.5-5.1c0,0,.2,0,.4,0,.5,0,1.1.6,1.6,1.8.5,1.2.8,2.9.8,5.1v36.9c0,1.4.2,2.5.5,3.2.3.7,1,1.2,1.9,1.5.9.3,2.4.4,4.2.4s.2.1.2.4,0,.4-.2.4c-1.4,0-2.9,0-4.7,0-1.7,0-3.6,0-5.5,0s-2.7,0-4,0c-1.3,0-2.5,0-3.5,0ZM663.5,95.8c-1.9,0-3.6-.1-4.9-.4-1.4-.3-3-.8-4.9-1.4l2.6-4.7c1.1,1.3,2.3,2.5,3.5,3.3s3,1.3,5.1,1.3,4.2-1,5.5-3,2-5.3,2-9.7-.9-6.9-2.7-8.9c-1.8-2-4-2.9-6.5-2.9s-3.4.5-4.8,1.4c-1.3.9-2.7,2.1-3.9,3.6l-.7-.9c2.5-2.9,4.9-5,7.2-6.3,2.3-1.3,4.7-1.9,7.1-1.9s4,.5,5.8,1.6c1.8,1.1,3.2,2.6,4.3,4.6,1.1,2,1.7,4.5,1.7,7.4s-.5,5.8-1.5,8c-1,2.2-2.3,3.9-4,5.2-1.6,1.3-3.4,2.3-5.3,2.8-1.9.6-3.8.9-5.6.9Z"/>
      <path class="st3" d="M691.7,95.3c-2.2,0-3.8-.5-4.9-1.4-1.1-1-1.6-2.3-1.6-3.9s.4-2.9,1.3-3.8c.9-.9,2.1-1.6,3.5-2.1,1.4-.5,2.9-1.1,4.5-1.6l7.4-2.7.3,1.1-4.2,1.9c-.4.1-1,.4-1.7.7-.7.3-1.4.8-2,1.4-.6.6-.9,1.5-.9,2.6s.4,2.2,1.3,2.9c.8.6,1.7.9,2.5.9s.8,0,1.2-.1c.4,0,.8-.3,1.3-.7l3.7-2.5v1.2c0,0-5.1,3.7-5.1,3.7-1.1.8-2.1,1.4-3.1,1.8-1,.4-2.1.6-3.4.6ZM705.9,95.2c-.2,0-.4.1-.7.1-.9,0-1.8-.6-2.7-1.8s-1.3-2.9-1.3-5.1v-12.6c0-3.1-.2-5.4-.7-6.9-.5-1.5-1.4-2.2-2.7-2.2s-2.2.4-2.8,1.2c-.6.8-1,1.6-1.3,2.6-.2.9-.4,1.7-.4,2.4-.1,1.5-.6,2.6-1.3,3.2-.7.6-1.7.9-3,.9s-2.2-.3-2.7-.8c-.5-.5-.8-1.2-.8-2,0-1.2.5-2.3,1.6-3.4s2.4-2,4-2.8c1.6-.8,3.3-1.5,5.1-1.9,1.8-.5,3.3-.7,4.6-.7,2,0,3.8.6,5.2,1.9,1.4,1.3,2.2,3.4,2.2,6.3v13.1c0,1.4.3,2.6.8,3.3.5.8,1.2,1.2,2.2,1.2s1.4-.2,2.2-.5c.2,0,.4,0,.5.3.1.3,0,.5-.2.6l-7.7,3.6Z"/>
      <path class="st3" d="M716.4,94.8c-.1,0-.2-.1-.2-.4s0-.4.2-.4c1.5,0,2.6-.4,3.1-1.1.5-.7.8-2.1.8-4v-14c0-1.5-.2-2.7-.5-3.4-.3-.7-.9-1.1-1.8-1.1s-1,0-1.6.3c-.6.2-1.3.4-2,.8-.2,0-.3,0-.4-.3,0-.3,0-.5,0-.5l10.3-5.1c.3,0,.5-.1.5-.1.5,0,1.1.6,1.6,1.8.5,1.2.8,2.9.8,5.1v16.5c0,2,.3,3.3.9,4,.6.7,1.6,1.1,3.2,1.1s.2.1.2.4,0,.4-.2.4c-1,0-2.1,0-3.4,0-1.3,0-2.7,0-4.1,0s-2.7,0-4,0c-1.3,0-2.4,0-3.4,0ZM736.4,94.8c-.1,0-.2-.1-.2-.4s0-.4.2-.4c1.5,0,2.6-.4,3.1-1.1.5-.7.8-2.1.8-4v-10.7c0-2.7-.5-4.7-1.4-5.9-1-1.3-2.5-1.9-4.6-1.9s-3,.4-4.6,1.1c-1.6.7-2.8,1.8-3.8,3l-.4-.9c1.7-2.5,3.7-4.5,5.9-6,2.2-1.5,4.6-2.3,7.1-2.3s4.9.9,6.4,2.6c1.5,1.7,2.3,4,2.3,6.7v14.3c0,2,.3,3.3.9,4,.6.7,1.6,1.1,3.2,1.1s.2.1.2.4,0,.4-.2.4c-1,0-2.1,0-3.4,0-1.3,0-2.6,0-4.1,0s-2.7,0-4,0c-1.3,0-2.4,0-3.4,0Z"/>
      <path class="st3" d="M785.3,66.1c0,0,.1.1.1.4s0,.4-.1.4c-1.7,0-3.1.7-4.2,2.2-1.1,1.4-2.2,3.4-3,5.8l-8.2,21.9c-1.8,4.8-3.5,8.5-5.2,11.3-1.7,2.7-3.3,4.7-5,5.8-1.7,1.1-3.5,1.7-5.3,1.7s-2.6-.3-3.4-.9c-.8-.6-1.2-1.5-1.2-2.7s.4-2.1,1.1-2.6c.7-.6,1.5-.9,2.5-.9s1.5.2,2,.5,1,.6,1.5,1c.5.3,1.1.5,1.9.5,1.2,0,2.3-.5,3.3-1.5,1-1,2.1-2.7,3.2-5.2,1.1-2.5,2.5-5.8,4-10.1l-.2,4.1-12.6-25.5c-1.1-2.2-1.9-3.6-2.6-4.3-.6-.7-1.4-1-2.3-1s-.2-.1-.2-.4,0-.4.2-.4c1,0,2,0,3.2,0,1.1,0,2.2,0,3.2,0,1.8,0,3.3,0,4.7,0,1.3,0,2.5,0,3.6,0s.2.1.2.4,0,.4-.2.4c-1.7,0-2.8.2-3.3.6-.5.4-.5,1.2,0,2.3l9.4,19.3-2.7,4.4,6.5-18.7c.8-2.4.9-4.3.2-5.8-.7-1.4-2.1-2.1-4.1-2.1s-.1-.1-.1-.4,0-.4.1-.4c1.2,0,2.3,0,3.4,0,1.1,0,2.4,0,4.1,0s2.2,0,2.9,0c.8,0,1.7,0,2.8,0Z"/>
    </g>
    <text class="st0" transform="translate(164.7 149.2)"><tspan x="0" y="0">AI AGENCY - thevikingcompany.eu</tspan></text>
  </g>
</svg>